<svg width="80" height="80" viewBox="0 0 80 80" fill="none" xmlns="http://www.w3.org/2000/svg">
<circle cx="40" cy="40" r="40" fill="#330086"/>
<path d="M33.0561 55.9265C30.7925 55.9265 28.8627 55.1285 27.2667 53.5325C25.6707 51.9365 24.8732 50.0072 24.8743 47.7447V33.0174C23.9743 33.0174 23.2036 32.6967 22.5621 32.0552C21.9207 31.4138 21.6005 30.6436 21.6016 29.7447V26.4719C21.6016 25.5719 21.9223 24.8012 22.5637 24.1598C23.2052 23.5183 23.9754 23.1981 24.8743 23.1992H41.2379C42.1379 23.1992 42.9087 23.5199 43.5501 24.1614C44.1916 24.8029 44.5117 25.573 44.5107 26.4719V29.7447C44.5107 30.6447 44.1899 31.4154 43.5485 32.0569C42.907 32.6983 42.1368 33.0185 41.2379 33.0174V37.9674C40.0925 38.7038 39.1172 39.6245 38.3121 40.7296C37.507 41.8347 36.9414 43.0821 36.6152 44.4719H33.0561V41.1992H37.9652V39.5629H33.0561V36.2901H37.9652V33.0174H28.147V47.7447C28.147 49.1083 28.6243 50.2674 29.5788 51.2219C30.5334 52.1765 31.6925 52.6538 33.0561 52.6538C33.8743 52.6538 34.6243 52.4765 35.3061 52.1219C35.9879 51.7674 36.5607 51.2765 37.0243 50.6492C37.2425 51.1947 37.4879 51.7129 37.7607 52.2038C38.0334 52.6947 38.3607 53.1719 38.7425 53.6356C38.0061 54.3447 37.1536 54.9038 36.1848 55.3129C35.2161 55.7219 34.1732 55.9265 33.0561 55.9265ZM33.0561 49.381V46.1083H36.3697C36.3152 46.6538 36.3081 47.1992 36.3485 47.7447C36.3888 48.2901 36.4777 48.8356 36.6152 49.381H33.0561ZM24.8743 29.7447H41.2379V26.4719H24.8743V29.7447ZM46.9652 51.0174C48.1107 51.0174 49.0788 50.6219 49.8697 49.831C50.6607 49.0401 51.0561 48.0719 51.0561 46.9265C51.0561 45.781 50.6607 44.8129 49.8697 44.0219C49.0788 43.231 48.1107 42.8356 46.9652 42.8356C45.8197 42.8356 44.8516 43.231 44.0607 44.0219C43.2697 44.8129 42.8743 45.781 42.8743 46.9265C42.8743 48.0719 43.2697 49.0401 44.0607 49.831C44.8516 50.6219 45.8197 51.0174 46.9652 51.0174ZM55.3107 57.5629L50.8925 53.1447C50.2925 53.5265 49.6652 53.8129 49.0107 54.0038C48.3561 54.1947 47.6743 54.2901 46.9652 54.2901C44.9197 54.2901 43.1814 53.5739 41.7501 52.1416C40.3188 50.7092 39.6027 48.9709 39.6016 46.9265C39.6016 44.881 40.3177 43.1421 41.7501 41.7098C43.1825 40.2774 44.9208 39.5618 46.9652 39.5629C49.0107 39.5629 50.7496 40.279 52.1819 41.7114C53.6143 43.1438 54.3299 44.8821 54.3288 46.9265C54.3288 47.6356 54.2334 48.3174 54.0425 48.9719C53.8516 49.6265 53.5652 50.2538 53.1834 50.8538L57.6016 55.2719L55.3107 57.5629Z" fill="white"/>
</svg>
