<svg width="80" height="80" viewBox="0 0 80 80" fill="none" xmlns="http://www.w3.org/2000/svg">
<circle cx="40" cy="40" r="40" fill="#330086"/>
<path d="M54.5787 18.4102L57.0716 23.105L62.4034 23.7529L58.4911 27.2787L59.2735 32.4947L54.5787 29.5604L49.8838 32.4947L50.6663 27.2787L46.7539 23.7529L52.2312 23.105L54.5787 18.4102Z" fill="white"/>
<path d="M54.1335 36.0148L51.1006 35.2354C50.557 37.3297 49.4048 39.2159 47.7897 40.6556C46.1746 42.0954 44.1689 43.0241 42.0262 43.3246C39.8835 43.625 37.6998 43.2836 35.751 42.3435C33.8022 41.4034 32.1757 39.9068 31.0771 38.0428C29.9785 36.1788 29.457 34.0309 29.5785 31.8707C29.7 29.7104 30.459 27.6346 31.7598 25.9055C33.0605 24.1764 34.8445 22.8716 36.8864 22.156C38.9283 21.4404 41.1365 21.346 43.2321 21.8848L44.013 18.8535C40.9582 18.0589 37.7249 18.3146 34.833 19.5796C31.9411 20.8446 29.5586 23.0454 28.0686 25.828C26.5785 28.6107 26.0675 31.8135 26.6177 34.9217C27.168 38.0298 28.7474 40.8627 31.1021 42.9647V62.2293L40.4918 55.9695L49.8815 62.2293V42.9929C51.96 41.1404 53.4402 38.7112 54.1335 36.0148ZM46.7516 56.3811L40.4918 52.2073L34.232 56.3811V45.0931C36.1742 46.0687 38.3173 46.5776 40.4907 46.5792C42.6642 46.5809 44.808 46.0752 46.7516 45.1024V56.3811Z" fill="white"/>
</svg>
