<svg width="80" height="80" viewBox="0 0 80 80" fill="none" xmlns="http://www.w3.org/2000/svg">
<circle cx="40" cy="40" r="40" fill="#330086"/>
<path d="M40.5152 25.6073C42.0282 25.7143 43.4132 26.0028 44.3759 26.9529C45.3583 27.9212 45.6708 29.34 45.6708 31.0923C45.6708 31.7003 45.5906 32.4364 45.5061 33.1162C45.4695 33.3977 45.4343 33.668 45.3991 33.9213L45.3203 34.5251H48.2057C49.2641 34.5251 50.2409 34.6771 51.0713 35.0937C51.9327 35.5244 52.566 36.2014 52.9784 37.1078C53.7539 38.8165 53.7413 41.3415 53.2923 44.6998L53.2205 45.2487C53.0319 46.6702 52.8714 47.8835 52.6631 48.88C52.4295 49.9989 52.1086 50.9856 51.5146 51.7653C50.262 53.4092 48.1437 53.6964 45.0642 53.6964C41.7833 53.6964 39.3217 53.108 37.2611 52.5366L36.4138 52.2973C34.974 51.8892 33.8072 51.557 32.6277 51.4726C32.5682 52.0816 32.2843 52.6466 31.831 53.0577C31.3778 53.4688 30.7878 53.6965 30.1759 53.6964H28.0646C27.4114 53.6964 26.7849 53.4369 26.323 52.9749C25.8611 52.513 25.6016 51.8865 25.6016 51.2333V36.4548C25.6016 35.0951 26.705 33.9917 28.0646 33.9917H30.1759C30.8006 33.9917 31.402 34.2291 31.8582 34.6559C32.3145 35.0826 32.5916 35.6668 32.6333 36.2901C32.8864 36.2649 33.1344 36.2028 33.3694 36.1057C34.722 35.5216 37.2738 33.9466 37.2738 30.1943V28.7122C37.2738 26.9951 38.6841 25.4778 40.5152 25.6073ZM32.6389 49.3585C34.1295 49.4486 35.5651 49.8582 37.0275 50.2762L37.8269 50.5014C39.8058 51.0503 42.0578 51.5851 45.0642 51.5851C48.269 51.5851 49.2922 51.1995 49.8355 50.4859C50.1395 50.0876 50.3816 49.4753 50.5955 48.4479C50.787 47.533 50.9362 46.407 51.129 44.9616L51.1994 44.4211C51.6497 41.0431 51.5554 39.0797 51.0558 37.9819C50.8306 37.4864 50.528 37.1824 50.1269 36.9812C49.6976 36.7658 49.0853 36.6363 48.2057 36.6363H44.8699C43.9114 36.6363 43.0501 35.8341 43.1655 34.7672C43.2021 34.4252 43.257 34.0114 43.3133 33.5934L43.4118 32.8516C43.4962 32.1732 43.5596 31.5553 43.5596 31.0923C43.5596 29.5089 43.2598 28.8164 42.8938 28.4561C42.5068 28.0761 41.8044 27.8157 40.3674 27.7129C39.8734 27.6791 39.385 28.0986 39.385 28.7122V30.1943C39.385 35.1909 35.8832 37.3204 34.2055 38.0438C33.6819 38.269 33.1442 38.3703 32.6389 38.4098V49.3585ZM28.0646 51.5851H30.1759C30.2692 51.5851 30.3587 51.5481 30.4247 51.4821C30.4907 51.4161 30.5277 51.3266 30.5277 51.2333V36.4548C30.5277 36.3614 30.4907 36.2719 30.4247 36.206C30.3587 36.14 30.2692 36.1029 30.1759 36.1029H28.0646C27.9713 36.1029 27.8818 36.14 27.8158 36.206C27.7499 36.2719 27.7128 36.3614 27.7128 36.4548V51.2333C27.7128 51.4275 27.8704 51.5851 28.0646 51.5851Z" fill="white"/>
</svg>
