<svg width="80" height="80" viewBox="0 0 80 80" fill="none" xmlns="http://www.w3.org/2000/svg">
<circle cx="40" cy="40" r="40" fill="#330086"/>
<path d="M39.6019 31.4002C40.4222 31.4002 41.1956 31.283 41.9222 31.0487C42.6487 30.8143 43.3753 30.5565 44.1018 30.2753C44.8284 29.994 45.549 29.7362 46.2639 29.5018C46.9787 29.2675 47.758 29.1503 48.6017 29.1503V31.4002C48.0861 31.4002 47.5939 31.453 47.1252 31.5584C46.6564 31.6639 46.1994 31.8045 45.7541 31.9803C45.3088 32.1561 44.8518 32.3377 44.383 32.5252C43.9143 32.7127 43.4397 32.8943 42.9592 33.0701C42.4788 33.2459 41.9573 33.3807 41.3948 33.4744C40.8323 33.5682 40.2347 33.6268 39.6019 33.6502C38.9574 33.6502 38.3597 33.5975 37.8089 33.492C37.2582 33.3865 36.7367 33.2459 36.2445 33.0701C35.7523 32.8943 35.2836 32.7127 34.8383 32.5252C34.393 32.3377 33.936 32.1561 33.4672 31.9803C32.9985 31.8045 32.5356 31.6698 32.0786 31.576C31.6215 31.4823 31.1294 31.4237 30.602 31.4002V29.1503C31.4106 29.1503 32.184 29.2675 32.9223 29.5018C33.6606 29.7362 34.3871 29.994 35.102 30.2753C35.8168 30.5565 36.5433 30.8143 37.2816 31.0487C38.0199 31.283 38.7933 31.4002 39.6019 31.4002ZM57.6016 32.5779C57.6016 34.6521 57.4492 36.7615 57.1445 38.906C56.8399 41.0505 56.3946 43.1774 55.8086 45.2867C55.2227 47.396 54.4844 49.4409 53.5938 51.4214C52.7032 53.4018 51.6896 55.2709 50.5529 57.0287C50.2716 57.4506 49.9142 57.7845 49.4806 58.0306C49.047 58.2767 48.5724 58.3998 48.0568 58.3998C47.4123 58.3998 46.8322 58.2181 46.3166 57.8549C45.801 57.4916 45.4436 56.9994 45.2444 56.3783L42.1155 47.0269C41.7054 47.0738 41.2893 47.1031 40.8675 47.1148C40.4456 47.1265 40.0237 47.1382 39.6019 47.15C39.18 47.15 38.7581 47.1441 38.3363 47.1324C37.9144 47.1207 37.4984 47.0855 37.0882 47.0269L33.9594 56.3783C33.7602 56.9877 33.4028 57.474 32.8872 57.8373C32.3715 58.2005 31.7915 58.388 31.1469 58.3998C30.6313 58.3998 30.1567 58.2767 29.7231 58.0306C29.2896 57.7845 28.9321 57.4506 28.6509 57.0287C27.5025 55.2826 26.4888 53.4194 25.6099 51.4389C24.731 49.4585 23.9986 47.4136 23.4127 45.3043C22.8268 43.195 22.3756 41.068 22.0592 38.9235C21.7428 36.779 21.5905 34.6638 21.6022 32.5779C21.6022 31.2655 21.8014 29.9999 22.1998 28.7811C22.5983 27.5624 23.1783 26.4784 23.94 25.5292C24.7017 24.58 25.6392 23.8242 26.7525 23.2617C27.8658 22.6992 29.1372 22.4121 30.5669 22.4004C31.3989 22.4004 32.1782 22.5176 32.9047 22.7519C33.6313 22.9863 34.3578 23.2441 35.0844 23.5254C35.8109 23.8066 36.5316 24.0644 37.2464 24.2988C37.9613 24.5332 38.7464 24.6504 39.6019 24.6504C40.4339 24.6504 41.2132 24.5332 41.9397 24.2988C42.6663 24.0644 43.3928 23.8066 44.1194 23.5254C44.8459 23.2441 45.5666 22.9863 46.2814 22.7519C46.9963 22.5176 47.7814 22.4004 48.6369 22.4004C50.0665 22.4004 51.338 22.6816 52.4513 23.2441C53.5645 23.8066 54.502 24.5625 55.2637 25.5117C56.0254 26.4609 56.6055 27.5448 57.0039 28.7636C57.4024 29.9823 57.6016 31.2538 57.6016 32.5779ZM55.3516 32.6131C55.3516 31.5233 55.2051 30.4979 54.9122 29.537C54.6192 28.5761 54.1798 27.7323 53.5938 27.0058C53.0079 26.2792 52.2696 25.705 51.379 25.2832C50.4884 24.8613 49.463 24.6504 48.3029 24.6504C47.6232 24.6504 46.9728 24.7675 46.3518 25.0019C45.7307 25.2363 45.0744 25.4941 44.383 25.7753C43.6917 26.0566 42.9651 26.3144 42.2034 26.5488C41.4417 26.7831 40.5745 26.9003 39.6019 26.9003C38.6292 26.9003 37.7621 26.7831 37.0004 26.5488C36.2387 26.3144 35.5121 26.0566 34.8207 25.7753C34.1293 25.4941 33.4614 25.2363 32.8168 25.0019C32.1723 24.7675 31.4575 24.6504 30.6723 24.6504C29.5356 24.6504 28.5396 24.873 27.6841 25.3183C26.8287 25.7636 26.1197 26.3554 25.5572 27.0937C24.9947 27.8319 24.567 28.6757 24.274 29.6249C23.9811 30.5741 23.8404 31.5702 23.8522 32.6131C23.8522 33.7615 23.9166 34.9978 24.0455 36.322C24.1744 37.6462 24.3736 39.0173 24.6432 40.4352C24.9127 41.8532 25.2349 43.2653 25.6099 44.6715C25.9849 46.0777 26.4244 47.4605 26.9283 48.8199C27.4322 50.1792 27.9888 51.4448 28.5982 52.6167C29.2075 53.7885 29.8638 54.8549 30.5669 55.8158C30.7427 56.0385 30.9653 56.1498 31.2348 56.1498C31.3755 56.1498 31.5571 55.9389 31.7797 55.517C32.0024 55.0951 32.2368 54.5444 32.4829 53.8647C32.7289 53.185 32.9926 52.4467 33.2739 51.6499C33.5551 50.853 33.8071 50.0737 34.0297 49.312C34.2524 48.5503 34.4692 47.8589 34.6801 47.2378C34.891 46.6168 35.0316 46.1656 35.102 45.8844C35.1957 45.5797 35.3715 45.316 35.6293 45.0934C35.8871 44.8707 36.1918 44.7535 36.5433 44.7418C37.059 44.7418 37.5687 44.7652 38.0726 44.8121C38.5765 44.859 39.0863 44.8883 39.6019 44.9C40.1175 44.9 40.6273 44.8766 41.1311 44.8297C41.635 44.7828 42.1448 44.7535 42.6604 44.7418C43.0003 44.7418 43.2991 44.8531 43.5569 45.0758C43.8147 45.2984 43.9963 45.568 44.1018 45.8844C44.1955 46.1656 44.3362 46.6168 44.5237 47.2378C44.7112 47.8589 44.9221 48.5445 45.1565 49.2945C45.3908 50.0444 45.6486 50.8296 45.9299 51.6499C46.2111 52.4702 46.4689 53.2084 46.7033 53.8647C46.9377 54.5209 47.1779 55.0658 47.424 55.4994C47.6701 55.933 47.8517 56.1498 47.9689 56.1498C48.2384 56.1498 48.4611 56.0385 48.6369 55.8158C49.34 54.8783 49.9962 53.812 50.6056 52.6167C51.215 51.4214 51.7657 50.1558 52.2579 48.8199C52.7501 47.4839 53.1895 46.107 53.5762 44.6891C53.963 43.2711 54.2852 41.859 54.543 40.4528C54.8008 39.0466 55 37.6755 55.1407 36.3396C55.2813 35.0037 55.3516 33.7615 55.3516 32.6131Z" fill="white"/>
</svg>
