<svg width="80" height="80" viewBox="0 0 80 80" fill="none" xmlns="http://www.w3.org/2000/svg">
<circle cx="40" cy="40" r="40" fill="#330086"/>
<path d="M41.1992 57.5996C37.6392 57.5996 34.159 56.5439 31.199 54.5661C28.2389 52.5882 25.9318 49.777 24.5694 46.4879C23.207 43.1988 22.8506 39.5796 23.5451 36.088C24.2396 32.5963 25.954 29.389 28.4713 26.8717C30.9886 24.3543 34.1959 22.64 37.6876 21.9455C41.1793 21.2509 44.7985 21.6074 48.0875 22.9698C51.3766 24.3322 54.1878 26.6393 56.1657 29.5994C58.1435 32.5594 59.1992 36.0396 59.1992 39.5996C59.1992 44.3735 57.3028 48.9519 53.9271 52.3275C50.5515 55.7032 45.9731 57.5996 41.1992 57.5996ZM41.1992 24.171C38.1477 24.171 35.1648 25.0759 32.6276 26.7712C30.0904 28.4665 28.1128 30.8762 26.9451 33.6954C25.7773 36.5146 25.4718 39.6167 26.0671 42.6096C26.6624 45.6024 28.1319 48.3515 30.2896 50.5093C32.4473 52.667 35.1964 54.1364 38.1893 54.7317C41.1821 55.327 44.2843 55.0215 47.1035 53.8538C49.9227 52.686 52.3323 50.7085 54.0276 48.1713C55.7229 45.6341 56.6278 42.6511 56.6278 39.5996C56.6278 35.5077 55.0023 31.5834 52.1089 28.69C49.2154 25.7966 45.2911 24.171 41.1992 24.171Z" fill="white"/>
<path d="M47.1012 47.3131L39.9141 40.1259V28.0273H42.4855V39.0588L48.9141 45.5002L47.1012 47.3131Z" fill="white"/>
</svg>
