<svg width="149" height="26" viewBox="0 0 149 26" fill="none" xmlns="http://www.w3.org/2000/svg">
<path d="M136.661 0.738281L133.908 9.21043H125L132.207 14.4465L129.454 22.9186L136.661 17.6826L143.868 22.9186L141.115 14.4465L148.322 9.21043H139.414L136.661 0.738281Z" fill="#FFA41B"/>
<path d="M105.684 0.738281L102.932 9.21043H94.0234L101.23 14.4465L98.4775 22.9186L105.684 17.6826L112.891 22.9186L110.138 14.4465L117.345 9.21043H108.437L105.684 0.738281Z" fill="#FFA41B"/>
<path d="M74.7117 0.738281L71.9589 9.21043H63.0507L70.2576 14.4465L67.5048 22.9186L74.7117 17.6826L81.9185 22.9186L79.1657 14.4465L86.3726 9.21043H77.4644L74.7117 0.738281Z" fill="#FFA41B"/>
<path d="M43.7351 0.738281L40.9823 9.21043H32.0742L39.281 14.4465L36.5282 22.9186L43.7351 17.6826L50.9419 22.9186L48.1892 14.4465L55.396 9.21043H46.4879L43.7351 0.738281Z" fill="#FFA41B"/>
<path d="M12.7624 0.738281L10.0097 9.21043H1.10152L8.30836 14.4465L5.55559 22.9186L12.7624 17.6826L19.9693 22.9186L17.2165 14.4465L24.4233 9.21043H15.5152L12.7624 0.738281Z" fill="#FFA41B"/>
</svg>
