<svg width="149" height="26" viewBox="0 0 149 26" fill="none" xmlns="http://www.w3.org/2000/svg">
<path d="M136.239 0.738281L133.486 9.21043H124.578L131.785 14.4465L129.032 22.9186L136.239 17.6826L143.446 22.9186L140.693 14.4465L147.9 9.21043H138.992L136.239 0.738281Z" fill="#FFA41B"/>
<path d="M105.262 0.738281L102.51 9.21043H93.6015L100.808 14.4465L98.0556 22.9186L105.262 17.6826L112.469 22.9186L109.717 14.4465L116.923 9.21043H108.015L105.262 0.738281Z" fill="#FFA41B"/>
<path d="M74.2898 0.738281L71.537 9.21043H62.6289L69.8357 14.4465L67.0829 22.9186L74.2898 17.6826L81.4966 22.9186L78.7438 14.4465L85.9507 9.21043H77.0425L74.2898 0.738281Z" fill="#FFA41B"/>
<path d="M43.3132 0.738281L40.5604 9.21043H31.6523L38.8591 14.4465L36.1064 22.9186L43.3132 17.6826L50.5201 22.9186L47.7673 14.4465L54.9741 9.21043H46.066L43.3132 0.738281Z" fill="#FFA41B"/>
<path d="M12.3406 0.738281L9.58779 9.21043H0.679649L7.88649 14.4465L5.13372 22.9186L12.3406 17.6826L19.5474 22.9186L16.7946 14.4465L24.0015 9.21043H15.0933L12.3406 0.738281Z" fill="#FFA41B"/>
</svg>
